<svg xmlns="http://www.w3.org/2000/svg" viewBox="0 0 800 800" role="img" aria-label="默认音乐封面">
  <defs>
    <linearGradient id="bg" x1="0" x2="1" y1="0" y2="1">
      <stop offset="0" stop-color="#bb4b54"/>
      <stop offset="0.52" stop-color="#f1c27d"/>
      <stop offset="1" stop-color="#5a8f8a"/>
    </linearGradient>
  </defs>
  <rect width="800" height="800" fill="url(#bg)"/>
  <circle cx="400" cy="400" r="245" fill="rgba(255,255,255,0.22)"/>
  <circle cx="400" cy="400" r="92" fill="rgba(255,250,242,0.86)"/>
  <path fill="#25201b" d="M458 226v270c0 55-45 100-100 100s-100-45-100-100 45-100 100-100c22 0 42 7 58 19V226h42z"/>
  <path fill="rgba(255,250,242,0.76)" d="M292 650h216c18 0 32 14 32 32s-14 32-32 32H292c-18 0-32-14-32-32s14-32 32-32z"/>
</svg>
